<svg width="20" height="20" viewBox="0 0 20 20" fill="none" xmlns="http://www.w3.org/2000/svg">
<g clip-path="url(#clip0_232_1788)">
<path d="M9.99946 0C15.5047 0 19.9989 4.49108 19.9989 10.0076C20.0141 15.5381 15.5047 20 9.94101 20C4.48016 20 0 15.4938 0 9.99243C0 4.49108 4.48016 0.0151433 9.99946 0ZM5.44677 1.27312C5.3591 1.31747 5.30064 1.33153 5.25626 1.36074C4.36326 1.91671 3.55794 2.57545 2.88467 3.38021C1.65395 4.82856 0.937382 6.51055 0.7761 8.41212C0.659198 9.7285 0.673269 11.06 1.02506 12.3472C2.60648 18.2282 9.19413 21.0233 14.524 18.0822C14.5825 18.053 14.6268 18.0238 14.7145 17.9794C14.6561 18.2574 14.5976 18.4911 14.5392 18.755C14.642 18.7107 14.6853 18.6966 14.7437 18.6674C16.2959 17.7015 17.5256 16.4294 18.3309 14.7756C19.3993 12.5809 19.5465 10.2693 19.0485 7.94267C17.7453 1.92969 10.9671 -1.11412 5.56476 1.84208C5.49115 1.88643 5.40347 1.92969 5.28657 1.9881C5.34394 1.72634 5.38832 1.5219 5.44677 1.27312Z" fill="#111111"/>
<path d="M12.0498 15.4202C11.9762 15.1714 11.9177 14.967 11.8744 14.7907C11.3765 14.9951 10.923 15.2298 10.4391 15.3759C9.56021 15.6387 8.69644 15.5803 7.86188 15.2006C7.68653 15.1271 7.64215 15.0254 7.67138 14.835C7.84673 13.9859 7.92034 13.153 7.7006 12.3039C7.68545 12.2596 7.67138 12.2012 7.65622 12.1579C7.65622 12.1428 7.627 12.1287 7.59777 12.0703C7.15831 12.7139 6.68962 13.3142 6.06073 13.8118C5.56281 12.729 5.56281 11.6171 5.70894 10.4467C5.40153 10.5343 5.12334 10.6219 4.80078 10.7096C4.91768 9.68522 5.2987 8.82205 5.89836 8.00323C5.70786 7.95888 5.54657 7.92967 5.35715 7.90047C5.73816 7.12491 6.2653 6.49647 6.98187 5.95455C6.86497 6.51053 6.89419 6.97889 7.37696 7.31529C7.33258 7.15412 7.28928 6.99295 7.26006 6.81772C7.2449 6.68576 7.2449 6.55488 7.26006 6.43697C7.34773 5.96861 7.68437 5.77824 8.13899 5.9102C8.22666 5.93941 8.31434 5.96861 8.43232 6.02702C8.30027 5.70469 8.08053 5.57381 7.81751 5.4559C7.81751 5.4267 7.8175 5.41156 7.80235 5.38235C8.22666 5.25039 8.6369 5.08922 9.07637 4.98754C9.45738 4.89993 9.86654 4.89993 10.2627 4.85558C10.6437 4.81123 10.936 4.95834 11.1849 5.23633C11.2726 5.32394 11.3603 5.41156 11.4631 5.49917C11.4783 5.48403 11.5075 5.48403 11.5216 5.46997C11.4923 5.32394 11.4631 5.19198 11.4339 5.03081C11.4783 5.03081 11.5216 5.03081 11.5659 5.04595C12.0195 5.17792 12.459 5.35315 12.8248 5.66034C12.8833 5.70469 12.9709 5.7631 12.9861 5.83557C13.0738 6.1287 13.1474 6.43589 13.2351 6.71388C12.8107 6.42075 12.3713 6.11356 11.9026 5.7923C11.829 6.01188 11.7857 6.17305 11.7272 6.34828C11.3906 6.14384 11.0973 5.95347 10.7898 5.7923C10.6729 5.73389 10.5117 5.70469 10.3796 5.73389C9.86762 5.82151 9.38378 6.01188 8.94431 6.37748C9.01792 6.43589 9.09044 6.48024 9.20734 6.56786C8.88478 6.72903 8.60659 6.87505 8.38794 7.19739C8.76896 7.13898 8.81226 7.38776 8.92916 7.60734C9.11966 7.98808 9.4563 8.17846 9.88061 8.19252C10.3926 8.20766 10.9057 8.19252 11.4328 8.19252C11.2867 8.03135 11.1102 7.87018 10.95 7.69495C10.7747 7.49052 10.555 7.41696 10.2909 7.44617C9.92499 7.47537 9.5732 7.38776 9.28095 7.15304C9.69119 6.67061 10.0711 6.65547 10.8916 7.09463C11.0237 7.02108 11.1546 6.96266 11.2867 6.89019C11.3018 6.93454 11.3159 6.9486 11.3159 6.9486C11.1406 7.31421 11.1406 7.31421 11.4328 7.60734C11.6082 7.78257 11.7694 7.97294 11.9307 8.14817C12.1505 8.10382 12.3702 8.04541 12.5899 8.04541C12.8097 8.03027 13.0294 8.07462 13.2783 8.08976C12.9558 7.73822 12.6343 7.41696 12.3117 7.08057C12.3269 7.05136 12.3561 7.02216 12.3702 6.99295C12.4871 7.0665 12.604 7.12491 12.7361 7.19739C12.8822 7.16818 12.9699 6.87505 13.1755 7.08057C13.3216 7.22659 13.3076 7.3737 13.1604 7.56299C13.2773 7.69495 13.4093 7.81177 13.5414 7.97294C13.5706 7.87018 13.5858 7.82692 13.615 7.76851H13.6594C14.7136 9.2612 15.0211 10.8707 14.4203 12.6695C14.2742 12.5084 14.1421 12.3764 13.9808 12.2163C13.878 12.9043 13.7027 13.5035 13.366 14.0454C13.0456 14.6014 12.6062 15.0546 12.0498 15.4202ZM10.424 9.40723C10.5993 9.74363 10.7758 10.0508 10.9219 10.358C10.9955 10.5192 11.0973 10.5484 11.2445 10.504C11.7565 10.3721 12.1526 10.0508 12.5618 9.72848C12.5769 9.71334 12.6062 9.68414 12.6062 9.65493C12.6062 9.43535 12.6354 9.21577 12.591 9.01134C12.5759 8.92372 12.3864 8.87938 12.2836 8.8069C12.21 8.76256 12.1515 8.70415 12.079 8.69009C11.9762 8.66088 11.8593 8.61653 11.7565 8.64574C11.2585 8.79284 10.8494 9.08597 10.424 9.40723ZM11.3473 11.1628C11.4058 11.2947 11.5086 11.4559 11.5811 11.6311C11.6396 11.7631 11.7132 11.7923 11.8301 11.7339C12.0498 11.6171 12.2695 11.5143 12.5185 11.3975L12.6062 12.0995C12.6354 12.0995 12.6646 12.0995 12.6798 12.0844C13.0164 11.8215 13.2361 11.47 13.2654 11.06C13.2805 10.8696 13.1485 10.5917 12.9872 10.4889C12.8551 10.4013 12.5629 10.4445 12.4016 10.5332C12.0498 10.6803 11.7132 10.9291 11.3473 11.1628ZM13.5284 8.64682C13.3671 8.74958 13.2502 8.83719 13.1181 8.92481C13.0738 8.95401 13.0305 9.01242 13.0305 9.05677C12.8984 9.62789 13.2351 9.99349 13.5868 10.3883C13.8217 9.80204 13.7481 9.232 13.5284 8.64682Z" fill="#111111"/>
<path d="M11.1575 2.85339C11.1867 3.29255 11.2159 3.67221 11.2603 4.09731C11.5093 3.81932 11.7138 3.59974 11.9336 3.3661L11.9779 3.41045C11.8903 3.83446 11.7874 4.27362 11.6846 4.71278C10.2201 4.34717 8.81509 4.50834 7.46855 5.22441C7.27805 4.80039 7.07347 4.40558 6.85373 3.92208C7.16114 4.11245 7.42526 4.28768 7.73267 4.47806C7.67421 4.0681 7.61576 3.68844 7.54216 3.26335C8.01085 3.58568 8.42109 3.86367 8.85947 4.17086C9.0056 3.73171 9.15281 3.32175 9.31301 2.85448C9.57604 3.26443 9.81092 3.63003 10.0599 4.03998C10.4398 3.64301 10.7764 3.27741 11.1575 2.85339ZM2.12353 12.7139C2.0943 12.6262 2.06508 12.5678 2.03585 12.4943C2.31404 12.3775 2.57707 12.2747 2.8704 12.1579C2.95808 12.3915 3.04576 12.6262 3.14859 12.8891C3.19297 12.9767 3.28064 13.0935 3.29472 13.2255C3.30987 13.4159 3.13343 13.4743 2.98731 13.5327C2.84118 13.5911 2.70912 13.6495 2.54784 13.7079C2.51862 13.6344 2.48939 13.5759 2.44501 13.4883C2.60629 13.4148 2.76757 13.3715 2.9137 13.2839C2.97215 13.2547 3.00138 13.1519 3.0306 13.0935C2.957 13.0643 2.86932 13.0059 2.7968 13.02C2.65067 13.0492 2.50346 13.1227 2.32811 13.1952C2.29888 13.1368 2.26966 13.0632 2.22528 12.9908C2.38656 12.9172 2.54784 12.8739 2.67881 12.7863C2.73727 12.742 2.76649 12.6544 2.79572 12.5819C2.72211 12.5668 2.63444 12.5083 2.56191 12.5235C2.44609 12.5819 2.29997 12.6554 2.12353 12.7139ZM5.27123 15.0546C5.34483 15.113 5.40328 15.1573 5.47581 15.2158C5.242 15.5089 5.02227 15.7869 4.77331 16.0941C4.91944 16.2109 5.05149 16.3277 5.21278 16.4597C5.1684 16.5181 5.1251 16.5765 5.06665 16.65L4.40745 16.1233C4.70079 15.7717 4.97897 15.4202 5.27123 15.0546ZM9.18095 17.3228C9.3563 17.2936 9.42991 17.352 9.38553 17.5132L9.34115 17.8204C9.29677 18.0832 9.10735 18.2444 8.85839 18.2011C8.59536 18.1719 8.44815 17.9967 8.4633 17.7187C8.47846 17.5576 8.50768 17.3964 8.52175 17.2071C8.60943 17.2222 8.66788 17.2363 8.75556 17.2514C8.72633 17.4126 8.69711 17.5738 8.69711 17.7198C8.69711 17.8074 8.77071 17.9242 8.84324 17.9534C8.96014 18.0119 9.04781 17.9091 9.07704 17.7923C9.1225 17.6441 9.15173 17.484 9.18095 17.3228ZM2.46016 11.1335C2.32811 10.6511 1.99147 10.9724 1.72844 10.8848C1.72844 10.8404 1.71329 10.7679 1.69922 10.6803C2.00663 10.6511 2.29997 10.6068 2.57815 10.5776C2.60737 10.7679 2.62253 10.914 2.6366 11.0892C2.59222 11.1043 2.53377 11.1043 2.46016 11.1335ZM3.67573 15.3618C3.63135 15.3174 3.60212 15.259 3.54367 15.2006L4.20287 14.6295C4.31977 14.7615 4.43668 14.8923 4.56873 15.0394C4.53951 15.0686 4.48106 15.113 4.43668 15.1563C4.05674 14.8209 3.93876 15.2893 3.67573 15.3618ZM2.7968 14.133C2.75242 14.0595 2.72319 14.001 2.6799 13.9286C2.94293 13.7825 3.19189 13.6354 3.47007 13.4894C3.51445 13.563 3.54367 13.6214 3.60213 13.6938C3.32394 13.841 3.06091 13.9718 2.7968 14.133ZM3.77856 13.2255C3.85217 13.3282 3.92469 13.3867 3.91062 13.4451C3.89546 13.5035 3.82294 13.5478 3.77856 13.5911C3.73418 13.5467 3.6465 13.4883 3.63243 13.4451C3.61728 13.3867 3.70496 13.3282 3.77856 13.2255Z" fill="#111111"/>
<path d="M8.08182 17.1325C7.90647 16.9865 7.73003 16.9865 7.54061 17.1033C7.36525 17.2061 7.29165 17.4397 7.3501 17.6593C7.40855 17.8497 7.56983 17.9665 7.78956 17.9665H7.90647C7.78956 18.2153 7.64344 18.2153 7.32087 17.9665C7.27649 18.0108 7.2332 18.04 7.17475 18.0984C7.45293 18.4792 7.95085 18.5084 8.09697 18.1568C8.22903 17.8497 8.28748 17.5273 8.39031 17.2061C8.27233 17.1758 8.15542 17.1909 8.08182 17.1325ZM8.11104 17.5565C8.00821 17.6149 7.92054 17.7177 7.81771 17.7318C7.67158 17.7469 7.5839 17.629 7.59797 17.483C7.61313 17.3369 7.7008 17.2342 7.83178 17.2634C7.93461 17.2926 8.02229 17.3954 8.10996 17.4538V17.5565H8.11104ZM3.04529 9.51001H1.68359V9.74365C1.82972 9.74365 1.97693 9.75879 2.12306 9.75879C2.12306 9.86155 2.12306 9.94917 2.13821 10.0216C2.16744 10.2704 2.34279 10.4316 2.59175 10.4316C2.82555 10.4316 3.01606 10.2856 3.04529 10.0508C3.06044 9.87561 3.04529 9.70038 3.04529 9.51001ZM2.70865 10.1244C2.67943 10.1536 2.51814 10.1687 2.50407 10.1244C2.43047 10.0368 2.40124 9.90482 2.34279 9.75879H2.84071C2.78226 9.90482 2.7671 10.0368 2.70865 10.1244ZM7.05784 16.7669C6.91172 16.6349 6.75043 16.6057 6.57508 16.6641C6.38457 16.7377 6.28174 16.8978 6.26767 17.1033C6.26767 17.2785 6.34128 17.4548 6.51663 17.5273C6.67791 17.6009 6.83919 17.6441 7.02862 17.7025C7.14552 17.4538 7.26242 17.1909 7.38041 16.927C7.26242 16.8545 7.14552 16.8394 7.05784 16.7669ZM6.77966 17.3369C6.69198 17.3369 6.55993 17.2201 6.54586 17.1325C6.51663 17.0005 6.61946 16.8697 6.76559 16.8837C6.86842 16.8989 6.95609 16.9865 7.05893 17.0449V17.1477C6.95501 17.2201 6.86734 17.3369 6.77966 17.3369ZM6.14969 16.8978C6.32504 16.6782 6.32504 16.4586 6.16484 16.2834C6.00356 16.1082 5.72538 16.079 5.53487 16.225C5.34436 16.371 5.28591 16.649 5.40281 16.8394C5.53487 17.0438 5.78383 17.1466 6.04686 17.0146C5.95918 16.9562 5.90073 16.8978 5.82712 16.8686C5.681 16.8242 5.56409 16.7518 5.59332 16.5462C5.78383 16.6934 5.95918 16.7961 6.14969 16.8978ZM6.06201 16.6501C5.91588 16.5625 5.81305 16.4889 5.69615 16.4164C5.9148 16.3126 6.01763 16.3721 6.06201 16.6501ZM10.1168 18.0249C9.9555 18.1125 9.85375 18.0541 9.78015 17.8789H10.4242C10.4242 17.5565 10.3073 17.3813 10.0583 17.338C9.85375 17.2937 9.63402 17.4116 9.54634 17.616C9.45867 17.8356 9.53119 18.0844 9.70762 18.2163C9.89813 18.3483 10.1763 18.304 10.3517 18.1287C10.2932 17.9957 10.2348 17.9665 10.1168 18.0249ZM10.1763 17.6885H9.78123C9.9122 17.484 9.99988 17.484 10.1763 17.6885ZM3.95344 14.2358C3.85061 14.0162 3.63088 13.9135 3.39708 13.973C3.17734 14.0314 3.01606 14.2358 3.04529 14.4705C3.06044 14.7042 3.23579 14.8945 3.55727 14.9097C3.49882 14.8069 3.48367 14.7345 3.42522 14.6901C3.26394 14.5581 3.23471 14.4857 3.33754 14.3094C3.4696 14.4846 3.5865 14.6458 3.71856 14.821C3.98267 14.6598 4.05627 14.4554 3.95344 14.2358ZM3.69041 14.5138C3.61681 14.411 3.55836 14.3094 3.48583 14.2207C3.50099 14.2055 3.51506 14.1915 3.53021 14.1623C3.60382 14.2066 3.6915 14.2358 3.73479 14.2942C3.77917 14.3526 3.76402 14.4402 3.77917 14.5138H3.69041ZM2.79633 11.7047C2.78117 11.4851 2.63505 11.3099 2.41531 11.2656C2.18151 11.2212 1.96178 11.3391 1.8741 11.5284C1.77127 11.762 1.85895 12.0108 2.10791 12.172C2.13713 12.1276 2.18151 12.0692 2.21074 12.026C2.09383 11.8648 1.97693 11.7188 2.18151 11.5284C2.23996 11.762 2.29841 11.9524 2.35686 12.172C2.67943 12.0995 2.81148 11.9535 2.79633 11.7047ZM2.45969 11.8951C2.43047 11.7491 2.40124 11.6322 2.37202 11.4851C2.62098 11.602 2.63613 11.7188 2.45969 11.8951Z" fill="#111111"/>
</g>
<defs>
<clipPath id="clip0_232_1788">
<rect width="20" height="20" fill="white"/>
</clipPath>
</defs>
</svg>
