<svg width="17" height="40" viewBox="0 0 17 40" fill="none" xmlns="http://www.w3.org/2000/svg">
<path d="M13.0267 40H3.33703C1.49403 40 0 38.4923 0 36.6326V3.36766C0 1.50772 1.49403 0 3.33703 0H13.0267C14.8696 0 16.3636 1.50772 16.3636 3.36766V36.6326C16.3636 38.4923 14.8696 40 13.0267 40Z" fill="white"/>
<path d="M8.61007 0.00362778C8.48786 0.127804 8.38237 0.236 8.27589 0.343208C8.05237 0.568451 7.90139 0.834023 7.83254 1.14484C7.78926 1.33934 7.77426 1.53704 7.77156 1.73598C7.77058 1.82007 7.76541 1.90441 7.76271 1.98875C7.75877 2.10433 7.70763 2.19088 7.60558 2.2467C7.59132 2.25433 7.57779 2.26441 7.56255 2.27007C7.36239 2.34531 7.30214 2.49654 7.30214 2.70063C7.30214 2.99424 7.33804 3.27407 7.50205 3.52685C7.56476 3.62373 7.57607 3.73561 7.56894 3.84898C7.54927 4.16397 7.50353 4.47552 7.43468 4.78363C7.3764 5.04354 7.21829 5.19871 6.95788 5.25895C6.66871 5.32559 6.37461 5.35805 6.08224 5.40305C5.58061 5.48051 5.07898 5.55624 4.58153 5.6605C4.2203 5.73648 3.92024 5.91058 3.66344 6.17025C3.30721 6.53049 3.02362 6.94434 2.76786 7.37884C2.45724 7.90653 2.20987 8.46423 1.98087 9.03127C1.65247 9.84421 1.26946 10.633 0.919643 11.4366C0.679155 11.9892 0.46124 12.5501 0.297546 13.1319C0.222301 13.3992 0.252179 13.6522 0.329366 13.9079C0.373235 14.0535 0.425634 14.1966 0.462838 14.3436C0.530583 14.6112 0.709867 14.7265 0.971921 14.7577C1.23068 14.7882 1.49177 14.801 1.748 14.8527C1.80401 14.864 1.85905 14.8785 1.91059 14.9036C2.01652 14.9549 2.04231 15.0223 1.99567 15.1293C1.955 15.2227 1.8965 15.3071 1.82401 15.3757C1.47641 15.704 1.30698 16.1156 1.22677 16.5784C1.16143 16.9556 1.07532 17.3288 1.03748 17.711C0.986872 18.2219 1.07141 18.7125 1.24352 19.1915C1.46143 19.7981 1.74955 20.3735 2.02599 20.954C2.22779 21.3779 2.43354 21.8 2.61336 22.2338C2.62888 22.2714 2.64501 22.31 2.65042 22.3496C2.65979 22.4182 2.69188 22.473 2.73749 22.521C2.86228 22.6515 3.01366 22.747 3.19528 22.7381C3.46803 22.7246 3.62688 22.8623 3.7547 23.0806C4.1485 23.7534 4.54636 24.4237 4.98505 25.069C5.80192 26.2714 6.72231 27.387 7.7573 28.408C8.43892 29.0803 9.12916 29.743 9.8821 30.3371C10.2514 30.6285 10.6427 30.8894 11.0253 31.1621C11.2058 31.2909 11.3484 31.4512 11.4418 31.6541C11.5178 31.8194 11.5923 31.9848 11.6513 32.1572C11.6944 32.2834 11.7013 32.4093 11.6481 32.5315C11.5694 32.7122 11.5923 32.8834 11.6705 33.0582C11.8249 33.4027 12.0054 33.7342 12.1731 34.0718C12.2602 34.2469 12.3435 34.4234 12.4303 34.5985C12.5577 34.8564 12.6239 35.1277 12.6197 35.4161C12.6175 35.558 12.6317 35.6986 12.6701 35.8358C12.6794 35.8695 12.6868 35.9072 12.707 35.9342C12.7903 36.0458 12.8014 36.174 12.8031 36.306C12.8085 36.7198 12.7662 37.1317 12.7446 37.5443C12.7173 38.0656 12.6743 38.5862 12.6703 39.1087C12.6686 39.3273 12.7089 39.5282 12.8498 39.7038C12.9071 39.7751 12.948 39.86 12.9961 39.9387C13.02 39.9777 13.0232 40.0053 12.9634 39.9991C12.9499 39.9979 12.9361 39.9991 12.9226 39.9991C9.72546 39.9991 6.5283 39.9996 3.33099 39.9986C2.36582 39.9984 1.5426 39.6554 0.880276 38.9501C0.39721 38.436 0.114919 37.8227 0.02733 37.1209C0.00706803 36.9586 8.4344e-05 36.7958 8.4344e-05 36.6326C5.97542e-05 25.5345 -0.000285175 14.4361 0.000624647 3.338C0.000698416 2.30179 0.391454 1.43918 1.18147 0.766895C1.66717 0.353539 2.23298 0.112312 2.86674 0.0321503C3.037 0.0107574 3.2077 0.00362778 3.37909 0.00362778C5.08365 0.00387192 6.78846 0.00362778 8.49302 0.00362778C8.52278 0.00362778 8.55253 0.00362778 8.61007 0.00362778Z" fill="#2650AA"/>
<path d="M16.4942 21.9001C16.5156 21.9335 16.5075 21.9611 16.5075 21.9864C16.508 26.8876 16.5084 31.7889 16.5075 36.6901C16.5072 38.1785 15.5588 39.4547 14.153 39.8654C14.1227 39.8742 14.092 39.8814 14.0441 39.8939C14.1188 39.7951 14.1818 39.7102 14.2467 39.6269C14.5322 39.2595 14.6099 38.8415 14.5563 38.3885C14.4977 37.8918 14.3337 37.4217 14.2 36.9439C14.1503 36.7661 14.107 36.5868 14.0824 36.4032C14.0718 36.3242 14.095 36.2477 14.0832 36.1678C14.0554 35.9802 13.9651 35.813 13.9189 35.6318C13.7731 35.0608 13.6678 34.4832 13.7015 33.8916C13.7212 33.5498 13.8011 33.2146 13.8882 32.8836C13.9993 32.4604 13.9496 32.0658 13.7131 31.6964C13.6137 31.5408 13.5225 31.379 13.4119 31.2317C13.2338 30.9951 13.1441 30.7298 13.0929 30.4416C12.9471 29.6208 12.7917 28.8017 12.6388 27.9824C12.4974 27.2238 12.2564 26.5028 11.8487 25.8411C11.6552 25.5271 11.4862 25.1983 11.3377 24.8597C11.1442 24.4174 11.0397 23.9516 10.9942 23.4741C10.8818 22.296 10.7055 21.1293 10.4151 19.981C10.3625 19.7731 10.3207 19.5624 10.2966 19.3489C10.2853 19.2489 10.2811 19.1499 10.3165 19.0511C10.3494 18.9587 10.3303 18.862 10.3128 18.7686C10.2113 18.2261 10.0502 17.6989 9.89871 17.1695C9.73593 16.601 9.58126 16.03 9.37962 15.4733C9.28766 15.2196 9.15905 14.9923 8.95963 14.8042C8.80004 14.6537 8.74644 14.4708 8.81332 14.248C8.9916 13.6547 9.22323 13.0812 9.44921 12.5056C9.53331 12.2909 9.61913 12.0767 9.70224 11.8618C9.71945 11.8171 9.74355 11.7834 9.78486 11.7566C10.045 11.5889 10.2971 11.4086 10.5644 11.2517C10.6556 11.1981 10.749 11.1475 10.8513 11.1185C10.9947 11.0779 11.0557 11.1131 11.0852 11.2586C11.1693 11.6764 11.2507 12.0949 11.3333 12.513C11.4725 13.2184 11.5829 13.9303 11.8032 14.6176C11.9778 15.1623 12.2338 15.6715 12.4831 16.184C12.6754 16.5791 12.8743 16.9713 13.0378 17.3795C13.1123 17.5657 13.1141 17.531 12.9589 17.6227C12.8187 17.7051 12.6722 17.7769 12.5288 17.8536C11.8283 18.2284 11.3279 18.7832 11.0301 19.5202C10.959 19.696 10.93 19.8802 10.9224 20.069C10.9076 20.4387 10.8813 20.8115 10.9531 21.1755C11.0382 21.6088 11.2482 21.9928 11.5209 22.3358C12.1307 23.1028 12.9333 23.4869 13.9113 23.464C14.7916 23.4434 15.5175 23.0686 16.1057 22.4194C16.2114 22.3026 16.3122 22.1814 16.4079 22.056C16.443 22.0098 16.4534 21.9493 16.4942 21.9001Z" fill="#D71A36"/>
<path d="M16.5087 19.0863C16.3914 18.9398 16.2733 18.8008 16.219 18.622C16.2057 18.5783 16.1661 18.5394 16.1312 18.5061C15.7997 18.1902 15.4542 17.8934 15.0288 17.7073C14.9143 17.6571 14.8434 17.5705 14.8063 17.452C14.7338 17.2201 14.6981 16.9806 14.6664 16.7416C14.57 16.0184 14.3632 15.3319 14.0256 14.6844C13.8114 14.2738 13.7089 13.8253 13.6031 13.3792C13.4637 12.792 13.357 12.1987 13.2975 11.5977C13.2658 11.278 13.2822 10.9561 13.2594 10.6357C13.2053 9.87935 13.0712 9.14363 12.7058 8.46692C12.4804 8.04889 12.1779 7.69725 11.7933 7.41767C11.4567 7.173 11.1292 6.91751 10.8146 6.64457C10.5825 6.44268 10.3263 6.27326 10.057 6.124C9.93556 6.05663 9.8195 5.98064 9.71893 5.88425C9.63188 5.80089 9.62794 5.77212 9.68229 5.6627C9.74598 5.53508 9.83474 5.42516 9.92892 5.31942C10.1192 5.10574 10.2889 4.87779 10.4269 4.62574C10.521 4.45337 10.6457 4.30313 10.7827 4.16125C11.0468 3.88756 11.228 3.5674 11.2934 3.18823C11.2988 3.15626 11.304 3.12208 11.2986 3.09085C11.2558 2.85135 11.3178 2.62709 11.3972 2.40553C11.5034 2.10972 11.5759 1.80923 11.5668 1.49055C11.5585 1.19867 11.438 0.963591 11.2445 0.755316C11.02 0.513844 10.7886 0.280733 10.5139 0.0950794C10.4812 0.0729485 10.4483 0.0495911 10.4195 0.0036068C10.4505 0.0036068 10.4709 0.0036068 10.4913 0.0036068C11.394 0.0036068 12.2967 -0.00598335 13.1991 0.00606728C14.4734 0.0230331 15.4437 0.585892 16.0914 1.68481C16.3887 2.18939 16.5099 2.74512 16.5096 3.33109C16.5079 8.55396 16.5087 13.7766 16.5087 18.9991C16.5087 19.0282 16.5087 19.0572 16.5087 19.0863Z" fill="#D71A36"/>
<path d="M2.2757 34.7327C2.2757 34.7642 2.2757 34.7954 2.2757 34.8269C2.2757 35.8877 2.27487 36.9485 2.2775 38.0093C2.27769 38.085 2.25751 38.1042 2.1832 38.1032C1.87064 38.0991 1.55793 38.0995 1.24534 38.1032C1.17897 38.104 1.16597 38.0831 1.16604 38.0211C1.16761 36.245 1.16759 34.4689 1.16602 32.6927C1.16597 32.6332 1.17873 32.6141 1.24173 32.6146C1.6332 32.6177 2.02469 32.618 2.41613 32.6143C2.48049 32.6138 2.49652 32.6382 2.50918 32.6945C2.75186 33.7752 2.99668 34.8552 3.24097 35.9354C3.24434 35.9502 3.24319 35.9671 3.26861 35.9811C3.26861 35.9455 3.26861 35.9172 3.26861 35.8889C3.26861 34.8335 3.26847 33.7781 3.26881 32.723C3.26886 32.601 3.25438 32.6165 3.37912 32.6163C3.68632 32.6158 3.99352 32.6178 4.30065 32.6148C4.36261 32.6141 4.37786 32.6323 4.37786 32.6927C4.37614 34.4689 4.37614 36.245 4.37786 38.0211C4.37786 38.0848 4.36138 38.1035 4.29647 38.103C3.91592 38.1 3.53529 38.1003 3.15471 38.1027C3.09535 38.1032 3.07214 38.0875 3.05805 38.0265C2.81026 36.9527 2.55942 35.8796 2.30905 34.8065C2.30312 34.7809 2.29493 34.7561 2.2878 34.731C2.28377 34.7315 2.27974 34.732 2.2757 34.7327Z" fill="white"/>
<path d="M7.27712 35.2208C7.6499 35.2835 7.86777 35.5166 7.99957 35.8481C8.05317 35.9826 8.08711 36.1232 8.09842 36.2668C8.12645 36.6305 8.10604 36.9905 7.97055 37.3343C7.78097 37.8145 7.41409 38.0668 6.90877 38.0912C6.27607 38.1217 5.64215 38.0973 5.00871 38.1022C4.9674 38.1025 4.94724 38.0912 4.9529 38.0474C4.95437 38.0341 4.9529 38.0203 4.9529 38.0068C4.9529 36.2413 4.95363 34.476 4.95117 32.7107C4.95093 32.6298 4.9738 32.6138 5.05052 32.6143C5.60502 32.6177 6.15976 32.6158 6.71426 32.6165C6.86131 32.6165 7.00737 32.6285 7.14999 32.6676C7.52302 32.7697 7.77088 33.008 7.88941 33.3721C8.0217 33.7789 8.02022 34.192 7.88768 34.5987C7.78908 34.9014 7.599 35.1251 7.27712 35.2208Z" fill="white"/>
<path d="M10.0359 32.616C10.2614 32.616 10.4872 32.618 10.7127 32.6146C10.7655 32.6138 10.7827 32.6337 10.7921 32.6805C11.0316 33.8704 11.2716 35.0598 11.5118 36.2494C11.6296 36.8322 11.7476 37.4147 11.8659 37.9975C11.8871 38.1018 11.8876 38.1015 11.7813 38.1015C11.4226 38.1015 11.0638 38.0998 10.7048 38.103C10.6377 38.1037 10.6195 38.0826 10.6126 38.0174C10.5833 37.7472 10.5464 37.4779 10.5142 37.2082C10.5083 37.1583 10.4891 37.1413 10.437 37.1418C10.168 37.1445 9.89874 37.1445 9.62972 37.1418C9.57415 37.1413 9.55768 37.1583 9.55153 37.2136C9.52178 37.4809 9.48489 37.7474 9.45366 38.0147C9.44629 38.0782 9.42907 38.105 9.3553 38.104C8.99654 38.0988 8.63777 38.1015 8.27876 38.1015C8.18089 38.1015 8.18016 38.1013 8.19909 38.0078C8.55761 36.2329 8.91687 34.4581 9.27342 32.6827C9.28497 32.6254 9.30785 32.6148 9.35899 32.6153C9.58473 32.6173 9.81021 32.616 10.0359 32.616Z" fill="white"/>
<path d="M6.13412 36.4036C6.13412 36.2054 6.13584 36.0072 6.13314 35.809C6.13215 35.7547 6.14396 35.7301 6.20395 35.7338C6.27945 35.7387 6.35567 35.736 6.43166 35.7348C6.5819 35.7323 6.69846 35.7977 6.76731 35.9261C6.93894 36.2462 6.93378 36.5723 6.76313 36.8905C6.69624 37.0152 6.58018 37.0791 6.4319 37.0725C6.35862 37.069 6.28486 37.0671 6.21207 37.0732C6.1442 37.0791 6.13166 37.0513 6.13289 36.9901C6.13633 36.7948 6.13412 36.5991 6.13412 36.4036Z" fill="#2650AA"/>
<path d="M6.13332 34.2029C6.13332 34.0374 6.1348 33.8719 6.13234 33.7065C6.13185 33.661 6.14537 33.6425 6.19209 33.6452C6.24324 33.6484 6.29513 33.6484 6.34652 33.6455C6.58283 33.6319 6.69471 33.7468 6.7579 33.9482C6.81913 34.1427 6.81667 34.3389 6.73627 34.5292C6.66963 34.6861 6.55848 34.7781 6.37848 34.7677C6.30029 34.7633 6.19529 34.7936 6.15054 34.754C6.0989 34.708 6.13627 34.6008 6.13406 34.5204C6.13111 34.4146 6.13332 34.3089 6.13332 34.2029Z" fill="#2650AA"/>
<path d="M10.041 33.7526C10.1448 34.4922 10.2486 35.2319 10.3521 35.9718C10.3656 36.068 10.3649 36.068 10.2653 36.068C10.0969 36.0682 9.92818 36.0667 9.75974 36.0689C9.71105 36.0697 9.7022 36.0562 9.70909 36.008C9.81212 35.2791 9.91294 34.55 10.0145 33.8209C10.0179 33.7973 10.0248 33.7742 10.03 33.7509C10.0337 33.7514 10.0374 33.7521 10.041 33.7526Z" fill="#2650AA"/>
</svg>
