<svg width="18" height="18" viewBox="0 0 18 18" fill="none" xmlns="http://www.w3.org/2000/svg">
<g clip-path="url(#clip0_0_31)">
<path d="M10.0579 8.9999L13.2829 5.7824C13.4242 5.64117 13.5035 5.44962 13.5035 5.2499C13.5035 5.05017 13.4242 4.85862 13.2829 4.71739C13.1417 4.57617 12.9502 4.49683 12.7504 4.49683C12.5507 4.49683 12.3592 4.57617 12.2179 4.71739L9.00044 7.9424L5.78294 4.71739C5.64171 4.57617 5.45017 4.49683 5.25044 4.49683C5.05072 4.49683 4.85917 4.57617 4.71794 4.71739C4.57671 4.85862 4.49737 5.05017 4.49737 5.2499C4.49737 5.44962 4.57671 5.64117 4.71794 5.7824L7.94294 8.9999L4.71794 12.2174C4.64765 12.2871 4.59185 12.3701 4.55377 12.4615C4.5157 12.5529 4.49609 12.6509 4.49609 12.7499C4.49609 12.8489 4.5157 12.9469 4.55377 13.0383C4.59185 13.1297 4.64765 13.2127 4.71794 13.2824C4.78766 13.3527 4.87062 13.4085 4.96201 13.4466C5.0534 13.4846 5.15143 13.5042 5.25044 13.5042C5.34945 13.5042 5.44748 13.4846 5.53888 13.4466C5.63027 13.4085 5.71322 13.3527 5.78294 13.2824L9.00044 10.0574L12.2179 13.2824C12.2877 13.3527 12.3706 13.4085 12.462 13.4466C12.5534 13.4846 12.6514 13.5042 12.7504 13.5042C12.8495 13.5042 12.9475 13.4846 13.0389 13.4466C13.1303 13.4085 13.2132 13.3527 13.2829 13.2824C13.3532 13.2127 13.409 13.1297 13.4471 13.0383C13.4852 12.9469 13.5048 12.8489 13.5048 12.7499C13.5048 12.6509 13.4852 12.5529 13.4471 12.4615C13.409 12.3701 13.3532 12.2871 13.2829 12.2174L10.0579 8.9999Z" fill="#111111"/>
</g>
<defs>
<clipPath id="clip0_0_31">
<rect width="18" height="18" fill="white"/>
</clipPath>
</defs>
</svg>
