<svg width="24" height="24" viewBox="0 0 24 24" fill="none" xmlns="http://www.w3.org/2000/svg">
<path fill-rule="evenodd" clip-rule="evenodd" d="M11.7499 4.5C11.6589 4.5 11.4349 4.525 11.3159 4.763L9.48994 8.414C9.20094 8.991 8.64394 9.392 7.99994 9.484L3.91194 10.073C3.64194 10.112 3.54994 10.312 3.52194 10.396C3.49694 10.477 3.45694 10.683 3.64294 10.861L6.59894 13.701C7.06994 14.154 7.28394 14.807 7.17194 15.446L6.47594 19.456C6.43294 19.707 6.58994 19.853 6.65994 19.903C6.73394 19.959 6.93194 20.07 7.17694 19.942L10.8319 18.047C11.4079 17.75 12.0939 17.75 12.6679 18.047L16.3219 19.941C16.5679 20.068 16.7659 19.957 16.8409 19.903C16.9109 19.853 17.0679 19.707 17.0249 19.456L16.3269 15.446C16.2149 14.807 16.4289 14.154 16.8999 13.701L19.8559 10.861C20.0429 10.683 20.0029 10.476 19.9769 10.396C19.9499 10.312 19.8579 10.112 19.5879 10.073L15.4999 9.484C14.8569 9.392 14.2999 8.991 14.0109 8.413L12.1829 4.763C12.0649 4.525 11.8409 4.5 11.7499 4.5ZM6.94692 21.5C6.53392 21.5 6.12392 21.37 5.77292 21.114C5.16692 20.67 4.86992 19.937 4.99892 19.199L5.69492 15.189C5.72092 15.04 5.66992 14.889 5.55992 14.783L2.60392 11.943C2.05992 11.422 1.86492 10.652 2.09492 9.937C2.32692 9.214 2.94092 8.697 3.69792 8.589L7.78592 8C7.94392 7.978 8.07992 7.881 8.14792 7.743L9.97492 4.091C10.3119 3.418 10.9919 3 11.7499 3C12.5079 3 13.1879 3.418 13.5249 4.091L15.3529 7.742C15.4219 7.881 15.5569 7.978 15.7139 8L19.8019 8.589C20.5589 8.697 21.1729 9.214 21.4049 9.937C21.6349 10.652 21.4389 11.422 20.8949 11.943L17.9389 14.783C17.8289 14.889 17.7789 15.04 17.8049 15.188L18.5019 19.199C18.6299 19.938 18.3329 20.671 17.7259 21.114C17.1109 21.565 16.3099 21.626 15.6309 21.272L11.9779 19.379C11.8349 19.305 11.6639 19.305 11.5209 19.379L7.86792 21.273C7.57592 21.425 7.26092 21.5 6.94692 21.5Z" fill="#212121"/>
</svg>
