<svg width="15" height="15" viewBox="0 0 15 15" fill="none" xmlns="http://www.w3.org/2000/svg">
<path fill-rule="evenodd" clip-rule="evenodd" d="M5.05469 3.12575L5.34864 3.12613C5.39889 3.1262 5.4497 3.12627 5.50098 3.12635L5.81339 3.12686C6.49886 3.12803 7.22899 3.12963 7.78546 3.13079L8.02917 3.13129C8.06747 3.13137 8.10454 3.13144 8.14028 3.13151C9.54649 3.03276 10.8158 4.07648 10.929 5.47707C10.93 5.49144 10.9309 5.57296 10.9317 5.72125L12.229 4.65878C12.6065 4.34941 13.1146 4.28879 13.5553 4.49691C13.9959 4.70628 14.2696 5.13877 14.269 5.62625L14.2615 10.2193C14.2609 10.7067 13.9865 11.1392 13.5465 11.3467C13.374 11.4286 13.1915 11.468 13.0103 11.468C12.7284 11.468 12.4503 11.3711 12.2209 11.183L10.9346 10.1156C10.9346 10.1337 10.9346 10.1519 10.9346 10.1701C10.9608 10.8301 10.7258 11.4657 10.2721 11.9594C9.79524 12.4788 9.13776 12.7806 8.42152 12.81C8.40937 12.8109 8.34092 12.8115 8.22858 12.8118L7.98167 12.8123C7.88536 12.8123 7.77594 12.8123 7.65608 12.8123L7.12738 12.8118C7.07974 12.8117 7.03135 12.8116 6.98229 12.8116L6.68079 12.8111C5.96246 12.8099 5.1533 12.808 4.52596 12.8066L4.26904 12.8061C4.18763 12.8059 4.11074 12.8058 4.03914 12.8056C3.9729 12.8106 3.90665 12.8131 3.8404 12.8131C2.51918 12.8137 1.36672 11.8013 1.25797 10.4732L1.25787 10.4718L1.25729 10.4594C1.25724 10.4581 1.2572 10.4566 1.25715 10.455L1.25672 10.4353C1.25668 10.4325 1.25662 10.4295 1.25657 10.4262L1.2561 10.3898C1.25605 10.3849 1.25599 10.3797 1.25594 10.3742L1.25544 10.3151C1.25538 10.3075 1.25533 10.2994 1.25527 10.291L1.25493 10.2351C1.25487 10.2249 1.25481 10.2143 1.25476 10.2032L1.25425 10.0901C1.2542 10.076 1.25414 10.0614 1.25408 10.0462L1.2536 9.89397C1.25354 9.87527 1.25349 9.85596 1.25344 9.83601L1.25298 9.63875C1.25294 9.6148 1.25289 9.59016 1.25284 9.56479L1.25232 9.22454C1.25228 9.19309 1.25224 9.16084 1.2522 9.12776L1.25172 8.56735C1.25169 8.52554 1.25166 8.48279 1.25164 8.4391L1.25163 5.99046C1.25166 5.9162 1.25169 5.8407 1.25172 5.76394C1.22172 5.11958 1.45546 4.4796 1.9117 3.98149C2.38794 3.4615 3.0448 3.15838 3.76165 3.12776C3.7713 3.12706 3.81698 3.12654 3.89232 3.12616L4.02679 3.12569C4.05265 3.12563 4.08016 3.12558 4.10923 3.12553L4.91426 3.1256C4.96024 3.12565 5.00709 3.1257 5.05469 3.12575ZM8.17403 4.06773C7.38496 4.06659 6.42013 4.06521 5.59677 4.06431L5.1636 4.06387C5.09438 4.06381 5.0268 4.06375 4.96111 4.06369L3.87422 4.06373C3.83332 4.06391 3.80686 4.06419 3.79665 4.06461C3.33541 4.08398 2.9098 4.2796 2.60293 4.61459C2.31669 4.92771 2.16919 5.3277 2.18857 5.74269L2.18908 8.15697C2.18911 8.21027 2.18914 8.2632 2.18917 8.3157L2.18974 9.06195C2.18979 9.10838 2.18984 9.15404 2.18989 9.19885L2.19021 9.45702C2.19027 9.49818 2.19033 9.53835 2.19039 9.57747L2.191 9.89931C2.19166 10.1891 2.1925 10.377 2.19357 10.4132C2.26482 11.2788 3.07604 11.9406 4.00477 11.8694C4.10298 11.8695 4.20389 11.8697 4.3069 11.8699L4.6216 11.8704C4.88808 11.8708 5.16385 11.8713 5.43944 11.8717L5.76944 11.8723C5.93379 11.8725 6.0967 11.8728 6.25613 11.8731L6.56973 11.8735C6.62102 11.8736 6.67178 11.8737 6.72191 11.8737L7.01475 11.8741C7.06212 11.8742 7.10873 11.8742 7.15449 11.8743L8.25786 11.8743C8.33004 11.874 8.37538 11.8736 8.38903 11.8731C8.84839 11.8544 9.27463 11.6594 9.58149 11.325C9.86836 11.0132 10.0159 10.6132 9.99773 10.2001L9.99719 10.1898L9.99707 7.16722C9.99704 7.11813 9.99701 7.06967 9.99698 7.02192L9.99651 6.48703C9.99646 6.44601 9.99641 6.40596 9.99636 6.36696L9.99583 6.0461C9.99563 5.94981 9.9954 5.86482 9.99516 5.79297L9.99463 5.66736C9.99425 5.59605 9.99383 5.55031 9.99336 5.53457C9.92273 4.66459 9.10776 3.99461 8.17403 4.06773ZM12.8228 5.38439L10.9343 6.92515C10.9344 7.00194 10.9345 7.08176 10.9345 7.16462L10.9349 8.73185L12.8153 10.4586C12.9534 10.5711 13.0921 10.5249 13.1459 10.4986C13.1996 10.4736 13.324 10.3955 13.324 10.218L13.3315 5.625C13.3321 5.44751 13.2071 5.36939 13.1534 5.34376C13.1003 5.31876 12.9597 5.27189 12.8228 5.38439Z" fill="#FEFEFE"/>
</svg>
