<svg width="28" height="28" viewBox="0 0 28 28" fill="none" xmlns="http://www.w3.org/2000/svg">
<path d="M23.332 14.3201C23.332 14.763 23.0029 15.1291 22.5758 15.1871L22.457 15.1951L4.95703 15.1951C4.47378 15.1951 4.08203 14.8033 4.08203 14.3201C4.08203 13.8771 4.41121 13.511 4.8383 13.4531L4.95703 13.4451L22.457 13.4451C22.9403 13.4451 23.332 13.8368 23.332 14.3201Z" fill="#212121"/>
<path d="M12.633 20.7284C12.9755 21.0694 12.9766 21.6234 12.6357 21.9658C12.3257 22.2771 11.8397 22.3064 11.4966 22.053L11.3982 21.9685L4.33991 14.9405C4.02766 14.6296 3.99926 14.1418 4.25471 13.7987L4.33986 13.7004L11.3982 6.67126C11.7406 6.33026 12.2946 6.33141 12.6356 6.67382C12.9456 6.98511 12.9729 7.47128 12.718 7.8133L12.6331 7.91126L6.19769 14.3208L12.633 20.7284Z" fill="#212121"/>
</svg>
