<svg width="35" height="44" viewBox="0 0 35 44" fill="none" xmlns="http://www.w3.org/2000/svg">
<path d="M30.4275 26.3464C31.0738 25.1285 31.1396 23.8539 30.982 22.5554C30.8809 21.7237 30.6677 20.9165 30.324 20.1647C29.7809 20.5396 29.2675 20.9035 28.7426 21.2496C28.617 21.3323 28.5774 21.4144 28.5785 21.5566C28.5853 22.2357 28.5879 22.9149 28.5779 23.5939C28.5753 23.7844 28.6315 23.9221 28.7635 24.0591C29.3007 24.6167 29.8158 25.1937 30.1849 25.8833C30.2628 26.0291 30.3384 26.1764 30.4275 26.3464ZM22.6674 28.574C22.6901 28.6325 22.7006 28.6699 22.7183 28.7037C23.0932 29.4144 23.466 30.126 23.8506 30.8314C23.88 30.8855 24.0056 30.9328 24.0679 30.9158C24.9589 30.6729 25.7828 30.2874 26.5167 29.722C26.6258 29.6382 26.7219 29.5373 26.824 29.4441C26.8531 29.4485 26.8822 29.4532 26.9113 29.4576C27.0113 30.3521 27.1116 31.2469 27.2118 32.1428C27.2159 32.1407 27.2536 32.1287 27.2842 32.1072C27.3815 32.0378 27.4806 31.9702 27.5714 31.8929C28.6053 31.0096 29.191 29.864 29.4945 28.5611C29.535 28.387 29.5174 28.1824 29.4689 28.008C29.3116 27.4426 29.0337 26.9315 28.6685 26.4737C28.6059 26.3952 28.4756 26.3308 28.3756 26.3293C27.8646 26.3208 27.3533 26.3305 26.8425 26.3458C26.7555 26.3484 26.6576 26.3908 26.5858 26.4437C26.233 26.7036 25.898 26.9891 25.5367 27.2361C24.6631 27.8342 23.7804 28.4205 22.6674 28.574ZM27.1507 22.5611C27.1507 22.2097 27.1448 21.858 27.1536 21.5067C27.1574 21.3588 27.1151 21.2883 26.966 21.231C26.2644 20.9609 25.6205 20.5832 25.0065 20.1497C24.9042 20.0777 24.7416 20.0527 24.6131 20.0659C24.4187 20.0865 24.2264 20.15 24.0385 20.2121C22.4219 20.746 21.0237 21.6657 19.6917 22.6974C19.6456 22.7332 19.6288 22.8737 19.66 22.9331C20.2816 24.1239 20.9108 25.3108 21.5462 26.4946C21.583 26.5631 21.6821 26.6292 21.7597 26.6398C22.2199 26.7025 22.6621 26.5898 23.0847 26.4305C24.5916 25.863 25.8392 24.8861 27.0551 23.8652C27.1148 23.8151 27.1442 23.701 27.1468 23.6155C27.1568 23.2643 27.151 22.9126 27.1507 22.5611ZM29.6462 13.9575C28.1169 12.4909 26.4808 11.2647 24.5772 10.3508C24.4455 11.018 24.3802 11.6631 24.013 12.2124C23.3719 11.7875 22.745 11.3512 22.097 10.9495C21.5701 10.6228 21.0187 10.3355 20.475 10.0362C20.2795 9.92859 20.0831 9.87801 19.8417 9.92065C17.9584 10.2532 16.1994 10.8766 14.676 12.0704C14.6383 12.0998 14.6045 12.1342 14.5669 12.1639C14.5357 12.1889 14.5013 12.2103 14.4454 12.2492C14.7404 12.5047 15.0094 12.7379 15.3023 12.9919C14.164 13.3844 13.266 14.0778 12.4789 15.0081C12.9491 15.0817 13.3703 15.151 13.7927 15.211C13.9265 15.2301 13.9959 15.2625 14.0106 15.4242C14.1723 17.2002 15.8657 18.2741 17.0768 18.4761C17.8784 18.6096 18.6817 18.5699 19.4877 18.5396C20.7638 18.4916 22.0405 18.4687 23.267 18.9254C23.2776 18.9292 23.2934 18.9189 23.3375 18.9068C22.9726 18.5111 22.6324 18.1106 22.2587 17.7442C21.7291 17.2246 21.1799 16.7248 20.6268 16.2299C20.5292 16.1423 20.3751 16.0835 20.2428 16.074C19.6156 16.0299 18.9869 15.9882 18.3585 15.9832C17.6917 15.9779 17.0639 15.8385 16.474 15.5359C16.1274 15.3583 15.7924 15.1581 15.4314 14.9564C16.1791 14.2677 17.0112 13.7967 17.9648 13.5318C18.2903 13.4412 18.5814 13.4988 18.8866 13.6126C19.7105 13.9202 20.4947 14.3019 21.2187 14.8138C21.6836 14.3995 22.1928 14.0937 22.8518 14.0484C22.7104 14.2739 22.5651 14.4695 22.4587 14.6841C22.3052 14.9934 22.2005 15.3213 22.2972 15.6736C22.3187 15.7518 22.3631 15.8326 22.419 15.8911C23.2129 16.7224 24.0135 17.5472 24.8036 18.3823C24.9036 18.4878 24.9648 18.5078 25.0974 18.4449C25.6216 18.1964 26.1883 18.0935 26.7596 18.0588C27.5967 18.0082 28.4347 18.0162 29.2457 18.2817C29.418 18.3379 29.5841 18.4123 29.7856 18.4531C29.5615 18.2161 29.353 17.9612 29.1101 17.7457C28.5312 17.2317 27.9328 16.7398 27.3494 16.2311C27.2451 16.1402 27.1657 16.0167 27.0886 15.8994C26.739 15.3675 26.3947 14.832 26.0465 14.2951C26.6211 14.4868 27.133 14.8253 27.61 15.2119C27.8399 15.0314 28.0425 14.817 28.2895 14.6888C28.9408 14.3513 28.9146 14.3019 29.3383 14.9843C29.4571 15.1755 29.5092 15.4101 29.578 15.6292C29.6247 15.7782 29.5791 15.9103 29.4518 16.0117C29.3277 16.1105 29.2078 16.2149 29.069 16.3313C29.5365 16.8377 30.0032 17.3434 30.5166 17.8997C30.5724 17.5081 30.6201 17.1732 30.6753 16.7844C32.3725 19.2162 33.6554 21.7829 34.24 24.6652C34.8936 27.8871 34.5558 31.0337 33.5064 34.1564C32.9985 33.5948 32.5131 33.0582 31.9779 32.4665C31.4654 37.2985 29.176 40.9879 25.1712 43.6666C25.0606 43.2434 24.9539 42.8415 24.8507 42.4386C24.7472 42.0338 24.6469 41.628 24.5425 41.2107C24.1173 41.4754 23.7207 41.7403 23.3075 41.9764C21.6991 42.8965 19.9805 43.5051 18.1504 43.8083C16.9539 44.0065 15.753 44.0556 14.5504 43.9341C12.9529 43.7727 11.4405 43.3117 10.0226 42.5483C9.89187 42.4781 9.86002 42.3954 9.88307 42.2643C10.0329 41.4119 10.1957 40.5615 10.327 39.7061C10.5394 38.3224 10.6116 36.931 10.518 35.531C10.4365 34.3119 10.2112 33.122 9.84094 31.8893C8.30122 34.1996 6.63427 36.3405 4.4519 38.056C4.08714 37.4582 3.84447 36.8322 3.64717 36.1882C3.31767 35.1132 3.12883 34.0108 3.01263 32.8929C2.88772 31.6917 2.84011 30.4882 2.89375 29.2827C2.9365 28.3211 3.00263 27.3599 3.26127 26.3755C2.18076 26.7086 1.12732 27.0332 0 27.3805C0.415451 23.8428 1.72091 20.7386 3.86055 17.9303C3.21713 17.8239 2.56901 17.7169 1.89571 17.6057C3.288 14.8105 5.20882 12.5135 7.71796 10.6628C6.65483 13.141 7.97892 15.3081 9.16635 15.7694C9.02544 15.4242 8.86901 15.0878 8.74952 14.7388C8.48188 13.9572 8.38299 13.1501 8.55754 12.3383C8.88345 10.8225 10.1208 10.1362 11.6211 10.6358C12.009 10.7648 12.3703 10.9739 12.7316 11.1406C12.716 10.4058 11.6015 9.44518 10.2989 9.04322C11.0004 8.75006 11.6928 8.43221 12.4054 8.16934C13.7277 7.68182 15.0929 7.36543 16.4943 7.19106C17.8072 7.02787 19.1204 7.0164 20.4354 7.11608C20.6277 7.13078 20.8229 7.25457 20.9958 7.36161C21.7971 7.85707 22.4695 8.50278 23.0952 9.20054C23.1835 9.29904 23.2696 9.39902 23.3911 9.53751C23.3708 8.79564 23.2111 8.14875 22.8979 7.45041C23.6125 7.68417 24.2711 7.87941 24.9151 8.11494C26.083 8.54189 27.1612 9.13497 28.1139 9.94182C28.3295 10.1241 28.5427 10.2941 28.5726 10.6243C28.66 11.5855 29.0155 12.472 29.3921 13.3495C29.4727 13.5376 29.55 13.7273 29.6462 13.9575Z" fill="#0038D6"/>
<path d="M24.0536 6.58094C18.8826 5.2457 13.9525 5.81761 9.2508 8.39282C8.67606 6.73649 8.017 5.13132 6.89844 3.68728C8.14626 4.25625 9.22063 4.98194 10.2722 5.83937C10.0369 4.34887 9.81077 2.9166 9.57603 1.42993C11.1386 2.51229 12.6565 3.56349 14.204 4.63527C14.7304 3.09067 15.2482 1.57107 15.7825 0.00412273C16.6523 1.40405 17.4982 2.76546 18.3683 4.16598C19.6289 2.77576 20.8688 1.40817 22.1456 4.76837e-06C22.2485 1.49315 22.3481 2.94042 22.4528 4.45943C23.2938 3.37501 24.1838 2.4232 25.2759 1.58636C24.527 3.19947 24.2479 4.86227 24.0536 6.58094Z" fill="#0038D6"/>
</svg>
