<svg width="280" height="25" viewBox="0 0 280 25" fill="none" xmlns="http://www.w3.org/2000/svg">
<path d="M9.13478 20.7733V17.7156C9.13478 16.9351 9.77217 16.3023 10.5584 16.3023H13.4326C13.8102 16.3023 14.1723 16.4512 14.4393 16.7163C14.7063 16.9813 14.8563 17.3408 14.8563 17.7156V20.7733C14.8539 21.0978 14.9821 21.4099 15.2124 21.6402C15.4427 21.8705 15.7561 22 16.0829 22H18.0438C18.9596 22.0023 19.8388 21.6428 20.4872 21.0008C21.1356 20.3588 21.5 19.487 21.5 18.5778V9.86686C21.5 9.13246 21.1721 8.43584 20.6046 7.96467L13.934 2.67587C12.7737 1.74856 11.1111 1.7785 9.98539 2.74698L3.46701 7.96467C2.87274 8.42195 2.51755 9.12064 2.5 9.86686V18.5689C2.5 20.4639 4.04738 22 5.95617 22H7.87229C8.55123 22 9.103 21.4562 9.10792 20.7822L9.13478 20.7733Z" fill="#0039DA"/>
<path fill-rule="evenodd" clip-rule="evenodd" d="M275.84 18.1931C275.84 21.4891 271.32 21.8701 267.921 21.8701L267.678 21.8699C265.512 21.8646 260 21.7279 260 18.1731C260 14.9444 264.338 14.5129 267.711 14.4966L268.164 14.4963C270.33 14.5016 275.84 14.6383 275.84 18.1931ZM267.921 15.9961C263.66 15.9961 261.5 16.7281 261.5 18.1731C261.5 19.6311 263.66 20.3701 267.921 20.3701C272.181 20.3701 274.34 19.6381 274.34 18.1931C274.34 16.7351 272.181 15.9961 267.921 15.9961ZM267.921 1.99969C270.849 1.99969 273.23 4.38169 273.23 7.30969C273.23 10.2377 270.849 12.6187 267.921 12.6187H267.889C264.967 12.6097 262.6 10.2267 262.61 7.30669C262.61 4.3817 264.992 1.99969 267.921 1.99969ZM267.921 3.42769C265.78 3.42769 264.038 5.16869 264.038 7.30969C264.031 9.4437 265.76 11.1837 267.892 11.1917L267.921 11.9057V11.1917C270.061 11.1917 271.802 9.44969 271.802 7.30969C271.802 5.16869 270.061 3.42769 267.921 3.42769Z" fill="#9CA4AB"/>
<path fill-rule="evenodd" clip-rule="evenodd" d="M79.7935 1.20483C80.2075 1.20483 80.5435 1.54083 80.5435 1.95483L80.544 2.80264C82.0041 2.90275 83.2167 3.40288 84.075 4.26293C85.012 5.20393 85.505 6.55693 85.5 8.17993V17.3029C85.5 20.6349 83.384 22.7049 79.979 22.7049H71.521C68.116 22.7049 66 20.6059 66 17.2269V8.17793C66 5.03513 67.8871 3.01777 70.9647 2.80299L70.9653 1.95483C70.9653 1.54083 71.3013 1.20483 71.7153 1.20483C72.1293 1.20483 72.4653 1.54083 72.4653 1.95483L72.465 2.78383H79.043L79.0435 1.95483C79.0435 1.54083 79.3795 1.20483 79.7935 1.20483ZM84 10.1088H67.5V17.2269C67.5 19.7929 68.928 21.2049 71.521 21.2049H79.979C82.572 21.2049 84 19.8189 84 17.3029L84 10.1088ZM80.2012 16.4011C80.6152 16.4011 80.9512 16.7371 80.9512 17.1511C80.9512 17.5651 80.6152 17.9011 80.2012 17.9011C79.7872 17.9011 79.4472 17.5651 79.4472 17.1511C79.4472 16.7371 79.7782 16.4011 80.1922 16.4011H80.2012ZM75.7637 16.4011C76.1777 16.4011 76.5137 16.7371 76.5137 17.1511C76.5137 17.5651 76.1777 17.9011 75.7637 17.9011C75.3497 17.9011 75.0097 17.5651 75.0097 17.1511C75.0097 16.7371 75.3407 16.4011 75.7547 16.4011H75.7637ZM71.3169 16.4011C71.7309 16.4011 72.0669 16.7371 72.0669 17.1511C72.0669 17.5651 71.7309 17.9011 71.3169 17.9011C70.9029 17.9011 70.5619 17.5651 70.5619 17.1511C70.5619 16.7371 70.8939 16.4011 71.3079 16.4011H71.3169ZM80.2012 12.5144C80.6152 12.5144 80.9512 12.8504 80.9512 13.2644C80.9512 13.6784 80.6152 14.0144 80.2012 14.0144C79.7872 14.0144 79.4472 13.6784 79.4472 13.2644C79.4472 12.8504 79.7782 12.5144 80.1922 12.5144H80.2012ZM75.7637 12.5144C76.1777 12.5144 76.5137 12.8504 76.5137 13.2644C76.5137 13.6784 76.1777 14.0144 75.7637 14.0144C75.3497 14.0144 75.0097 13.6784 75.0097 13.2644C75.0097 12.8504 75.3407 12.5144 75.7547 12.5144H75.7637ZM71.3169 12.5144C71.7309 12.5144 72.0669 12.8504 72.0669 13.2644C72.0669 13.6784 71.7309 14.0144 71.3169 14.0144C70.9029 14.0144 70.5619 13.6784 70.5619 13.2644C70.5619 12.8504 70.8939 12.5144 71.3079 12.5144H71.3169ZM79.043 4.28383H72.465L72.4653 5.24583C72.4653 5.65983 72.1293 5.99583 71.7153 5.99583C71.3013 5.99583 70.9653 5.65983 70.9653 5.24583L70.9648 4.30654C68.7245 4.49473 67.5 5.85269 67.5 8.17793V8.60883H84L84 8.17793C84.004 6.94293 83.672 5.98293 83.013 5.32293C82.4345 4.74274 81.5889 4.39623 80.5444 4.30702L80.5435 5.24583C80.5435 5.65983 80.2075 5.99583 79.7935 5.99583C79.3795 5.99583 79.0435 5.65983 79.0435 5.24583L79.043 4.28383Z" fill="#9CA4AB"/>
<path fill-rule="evenodd" clip-rule="evenodd" d="M144.028 2C147.172 2 149.284 4.153 149.284 7.357V16.553C149.284 19.785 147.237 21.887 144.069 21.907L136.376 21.91C133.232 21.91 131.119 19.757 131.119 16.553V7.357C131.119 4.124 133.166 2.023 136.334 2.004L144.027 2H144.028ZM144.028 3.5L136.339 3.504C134.011 3.518 132.619 4.958 132.619 7.357V16.553C132.619 18.968 134.024 20.41 136.375 20.41L144.064 20.407C146.392 20.393 147.784 18.951 147.784 16.553V7.357C147.784 4.942 146.38 3.5 144.028 3.5ZM143.835 15.4737C144.249 15.4737 144.585 15.8097 144.585 16.2237C144.585 16.6377 144.249 16.9737 143.835 16.9737H136.615C136.201 16.9737 135.865 16.6377 135.865 16.2237C135.865 15.8097 136.201 15.4737 136.615 15.4737H143.835ZM143.835 11.2872C144.249 11.2872 144.585 11.6232 144.585 12.0372C144.585 12.4512 144.249 12.7872 143.835 12.7872H136.615C136.201 12.7872 135.865 12.4512 135.865 12.0372C135.865 11.6232 136.201 11.2872 136.615 11.2872H143.835ZM139.37 7.1104C139.784 7.1104 140.12 7.4464 140.12 7.8604C140.12 8.2744 139.784 8.6104 139.37 8.6104H136.615C136.201 8.6104 135.865 8.2744 135.865 7.8604C135.865 7.4464 136.201 7.1104 136.615 7.1104H139.37Z" fill="#9CA4AB"/>
<path fill-rule="evenodd" clip-rule="evenodd" d="M200.089 5.41117L200.559 5.41177C200.64 5.41189 200.721 5.41201 200.803 5.41213L201.303 5.41294C202.4 5.41481 203.568 5.41738 204.458 5.41923L204.848 5.42003C204.91 5.42015 204.969 5.42027 205.026 5.42038C207.276 5.26238 209.307 6.93238 209.488 9.17338C209.49 9.19637 209.491 9.32681 209.493 9.56407L211.568 7.86408C212.172 7.36908 212.985 7.27208 213.69 7.60508C214.395 7.94008 214.833 8.63208 214.832 9.41208L214.82 16.7611C214.819 17.5411 214.38 18.2331 213.676 18.5651C213.4 18.6961 213.108 18.7591 212.818 18.7591C212.367 18.7591 211.922 18.6041 211.555 18.3031L209.497 16.5953C209.497 16.6242 209.497 16.6533 209.497 16.6824C209.539 17.7384 209.163 18.7554 208.437 19.5454C207.674 20.3764 206.622 20.8594 205.476 20.9064C205.457 20.9078 205.347 20.9087 205.167 20.9093L204.772 20.91C204.618 20.9101 204.443 20.9101 204.251 20.91L203.405 20.9092C203.329 20.9091 203.252 20.909 203.173 20.9089L202.691 20.9081C201.541 20.9062 200.247 20.9032 199.243 20.901L198.832 20.9001C198.702 20.8999 198.579 20.8996 198.464 20.8994C198.358 20.9074 198.252 20.9114 198.146 20.9114C196.032 20.9124 194.188 19.2924 194.014 17.1674L194.014 17.1652L194.013 17.1454C194.013 17.1432 194.013 17.1409 194.013 17.1382L194.012 17.1067C194.012 17.1023 194.012 17.0974 194.012 17.0922L194.011 17.034C194.011 17.0262 194.011 17.0178 194.011 17.009L194.01 16.9145C194.01 16.9022 194.01 16.8893 194.01 16.8758L194.009 16.7865C194.009 16.7702 194.009 16.7532 194.009 16.7354L194.008 16.5544C194.008 16.5319 194.008 16.5085 194.008 16.4841L194.007 16.2406C194.007 16.2107 194.007 16.1798 194.007 16.1479L194.006 15.8323C194.006 15.7939 194.006 15.7545 194.006 15.7139L194.005 15.1695C194.005 15.1192 194.005 15.0676 194.005 15.0146L194.004 14.118C194.004 14.0511 194.004 13.9827 194.004 13.9128L194.004 9.99483C194.004 9.876 194.004 9.7552 194.004 9.63238C193.956 8.60138 194.33 7.57738 195.06 6.78038C195.822 5.94838 196.873 5.46338 198.02 5.41438C198.036 5.41327 198.109 5.41243 198.229 5.41182L198.444 5.41107C198.486 5.41098 198.53 5.41089 198.576 5.41082L199.864 5.41093C199.938 5.411 200.013 5.41108 200.089 5.41117ZM205.08 6.91838C203.818 6.91655 202.274 6.91434 200.956 6.9129L200.263 6.9122C200.153 6.9121 200.044 6.912 199.939 6.91192L198.2 6.91197C198.135 6.91227 198.092 6.91271 198.076 6.91338C197.338 6.94438 196.657 7.25738 196.166 7.79338C195.708 8.29438 195.472 8.93438 195.503 9.59838L195.504 13.4613C195.504 13.5466 195.504 13.6313 195.504 13.7153L195.505 14.9093C195.505 14.9836 195.505 15.0567 195.505 15.1284L195.506 15.5415C195.506 15.6073 195.506 15.6716 195.506 15.7342L195.507 16.2492C195.508 16.7128 195.509 17.0135 195.511 17.0714C195.625 18.4564 196.923 19.5154 198.409 19.4014C198.566 19.4016 198.728 19.4019 198.893 19.4021L199.396 19.4029C199.822 19.4036 200.264 19.4044 200.705 19.4051L201.233 19.406C201.496 19.4064 201.756 19.4068 202.011 19.4072L202.513 19.408C202.595 19.4081 202.676 19.4082 202.757 19.4083L203.225 19.409C203.301 19.409 203.376 19.4091 203.449 19.4092L205.214 19.4092C205.33 19.4088 205.402 19.4082 205.424 19.4074C206.159 19.3774 206.841 19.0654 207.332 18.5304C207.791 18.0314 208.027 17.3914 207.998 16.7304L207.997 16.7139L207.997 11.8777C207.997 11.7991 207.997 11.7216 207.997 11.6452L207.996 10.7894C207.996 10.7237 207.996 10.6596 207.996 10.5972L207.995 10.0839C207.995 9.92979 207.994 9.79379 207.994 9.67884L207.993 9.47786C207.993 9.36375 207.992 9.29057 207.991 9.26538C207.878 7.87338 206.574 6.80138 205.08 6.91838ZM212.518 9.02508L209.497 11.4904C209.497 11.6132 209.497 11.741 209.497 11.8735L209.498 14.3812L212.506 17.1441C212.727 17.3241 212.949 17.2501 213.035 17.2081C213.121 17.1681 213.32 17.0431 213.32 16.7591L213.332 9.41008C213.333 9.12608 213.133 9.00108 213.047 8.96008C212.962 8.92008 212.737 8.84508 212.518 9.02508Z" fill="#9CA4AB"/>
</svg>
