<svg width="221" height="285" viewBox="0 0 221 285" fill="none" xmlns="http://www.w3.org/2000/svg">
<path fill-rule="evenodd" clip-rule="evenodd" d="M98.2036 7.06819C99.4923 3.17276 100.48 0.186741 100.507 0.114503C100.537 0.0208174 100.588 0 100.64 0.0624556C100.824 0.270646 114.947 22.9114 116.296 25.1598C116.716 25.8573 117.083 26.4298 117.114 26.4402C117.145 26.4402 118.208 25.3264 119.465 23.9627C127.753 15.0314 137.922 3.53924 140.037 0.707847C140.323 0.322694 140.579 0.0104079 140.62 0C140.651 0 140.732 0.968085 140.794 2.15477C141.427 12.887 142.838 28.5325 143.206 28.9177C143.236 28.9385 143.379 28.7095 143.533 28.3972C143.676 28.0953 144.146 27.3354 144.575 26.7005C146.19 24.2958 148.07 22.0786 150.942 19.2056C153.671 16.4679 156.246 14.2923 159.312 12.1063C160.313 11.3935 160.734 11.0874 160.811 11.1579C160.87 11.2119 160.727 11.4875 160.487 11.971C156.665 19.7157 154.437 29.2612 153.538 41.6798C153.446 42.8873 153.354 43.8866 153.333 43.9074C153.313 43.9386 152.996 43.8866 152.649 43.7929C151.249 43.4286 145.127 42.0129 142.909 41.534C137.012 40.2537 131.637 39.4417 126.302 39.0149C124.033 38.838 114.334 38.838 111.841 39.0149C101.539 39.7644 93.0257 41.3154 84.0424 44.0844C75.5701 46.6972 66.8423 50.5903 59.7395 54.9311C59.1263 55.3059 58.5949 55.5661 58.554 55.5245C58.5131 55.4724 58.2781 54.7229 58.043 53.8693C54.8953 42.6583 49.7751 31.3535 44.5527 24.1085C44.2666 23.7025 44.0519 23.3694 44.0724 23.3486C44.1337 23.2861 47.5983 25.0141 49.3663 25.9822C53.8426 28.4388 58.3189 31.468 61.2521 34.0392C62.458 35.1009 64.1749 36.9018 64.5735 37.5368C64.8597 37.9844 64.8903 38.0052 64.8392 37.7346C64.7473 37.2765 64.2465 33.8934 63.6026 29.3549C62.4887 21.5686 61.4769 15.1042 60.7922 11.4088C60.6286 10.4928 60.506 9.73291 60.5162 9.71209C60.5367 9.69127 60.9352 9.97233 61.4156 10.3263C68.5184 15.6247 89.7452 30.2917 90.3175 30.2917C90.4606 30.2917 92.7191 23.64 97.594 8.91056L98.2036 7.06819ZM67.3336 56.7111C82.7963 49.133 98.2692 45.0108 114.55 44.0948C114.917 44.074 117.789 44.074 120.937 44.0844C126.609 44.1156 127.866 44.1781 130.503 44.5528C131.433 44.6881 132.547 45.2711 134.785 46.7908C139.619 50.0699 145.771 56.0553 148.408 60.0318C148.643 60.3857 148.858 60.6876 148.888 60.6876C148.98 60.6876 148.796 58.283 148.582 56.6799C148.214 54.0359 147.601 51.1837 146.804 48.5084C146.599 47.8526 146.456 47.3009 146.487 47.2801C146.548 47.2176 150.227 48.2378 152.527 48.9664C159.078 51.0379 164.924 53.682 170.544 57.1171C173.559 58.9596 175.767 60.521 179.804 63.6439C180.989 64.5599 181.97 65.3198 181.991 65.3406C182.011 65.3511 182.073 65.8507 182.113 66.4336C182.676 73.3039 184.27 78.821 188.174 87.4297C188.603 88.3769 188.93 89.1577 188.91 89.1785C188.889 89.1993 188.654 88.9703 188.388 88.6684C188.123 88.3665 187.274 87.5129 186.508 86.7739C178.128 78.7169 163.993 68.9632 156.891 66.3504C156.257 66.1109 155.94 66.0381 155.94 66.1318C155.94 66.4441 155.409 69.9104 155.225 70.8473C154.898 72.4608 154.336 74.5739 153.927 75.6669C153.518 76.7703 152.905 78.1444 152.772 78.2276C152.731 78.2589 152.098 77.8425 151.382 77.3116C142.746 70.993 134.121 65.5696 128.888 63.1859L127.938 62.7591L126.333 63.0297C112.782 65.2886 100.211 70.941 92.2804 78.3526L91.6263 78.9667L94.4266 81.4962C95.9698 82.8911 97.237 84.0778 97.2575 84.1194C97.2779 84.1611 96.8896 84.3276 96.3888 84.4734C91.3197 86.0556 85.8521 89.7302 81.8867 94.2167C80.5684 95.7053 79.5668 97.0273 79.669 97.1209C79.7099 97.1626 81.9174 97.5998 84.5541 98.0994C87.2011 98.5991 89.429 99.0259 89.521 99.0571C89.6539 99.0883 89.705 99.307 89.7561 100.015C90.2671 106.5 94.2528 112.267 100.804 116.045C102.449 116.993 105.474 118.429 106.619 118.814C107.937 119.252 109.654 119.637 111.453 119.887C113.548 120.178 120.314 120.147 125.229 119.814C130.125 119.491 136.481 119.46 138.975 119.741C142.951 120.199 146.15 120.959 148.705 122.052C149.094 122.22 149.326 122.329 149.361 122.285C149.41 122.221 149.068 121.851 148.224 120.907C143.155 115.223 137.401 109.321 133.405 105.709C132.515 104.902 132.154 104.542 131.719 104.348C131.295 104.16 130.8 104.13 129.675 104.002C126.824 103.689 124.708 103.596 121.499 103.658C117.237 103.731 114.294 103.45 111.361 102.69C109.613 102.242 108.407 101.795 107.753 101.347C106.874 100.754 105.791 100.192 103.175 98.953C100.947 97.9017 99.5059 97.1209 98.8722 96.6525C98.6269 96.4651 98.6576 96.4235 99.8738 95.3617C104.534 91.2916 110.083 88.1687 115.531 86.5553L117.084 86.0972L118.699 86.5969C124.279 88.3041 130.176 91.1042 133.947 93.8315C134.468 94.2063 134.908 94.5186 134.928 94.5186C134.949 94.5186 135.327 94.2063 135.766 93.8315C137.452 92.4054 139.885 90.9689 141.827 90.2507C142.859 89.8655 144.688 89.4179 145.24 89.4179H145.628L144.974 90.1986C143.646 91.7809 142.675 93.5609 142.225 95.2472C141.878 96.538 141.888 98.7761 142.235 100.036L142.481 100.92L143.768 102.17C148.102 106.365 153.763 112.371 158.127 117.388L159.139 118.554L159.814 118.211C162.44 116.878 166.181 115.952 170.585 115.546C172.139 115.41 176.779 115.4 178.424 115.546C183.565 115.983 187.561 117.055 189.615 118.544L190.126 118.919L189.829 118.502C187.305 115.067 183.759 111.455 178.22 106.698C173.571 102.7 173.172 102.387 173.009 101.98C172.981 101.91 172.96 101.837 172.926 101.743C172.445 100.483 170.923 98.0266 167.744 93.3735C166.743 91.9162 165.833 90.5733 165.721 90.3756L165.526 90.0321L165.915 90.2194C168.746 91.5518 173.059 94.1959 175.818 96.2778L176.942 97.1209L177.29 96.6837C178.444 95.2056 180.601 93.4464 182.052 92.801C182.89 92.4158 184.117 92.0203 184.444 92.0203C184.771 92.0203 185.854 92.9363 186.6 93.8419C188.102 95.6428 189.063 97.9121 189.216 100.004C189.318 101.264 189.196 101.545 188.204 102.482C187.315 103.335 186.191 104.199 185.987 104.199C185.925 104.199 185.885 104.241 185.905 104.283C185.925 104.335 188.051 106.666 190.637 109.477C195.011 114.224 195.338 114.557 195.41 114.307C195.45 114.161 195.604 112.631 195.747 110.914C195.89 109.196 196.023 107.739 196.043 107.687C196.094 107.51 199.201 112.465 201.337 116.118C211.874 134.189 218.067 151.781 220.009 169.207C221.879 185.893 220.091 202.382 214.49 220.307L213.877 222.264L213.601 221.942C212.916 221.13 203.718 210.606 203.698 210.627C203.688 210.637 203.606 211.386 203.514 212.302C202.471 222.951 199.896 233.142 195.961 242.147C189.686 256.533 179.834 268.816 166.252 279.205C163.718 281.141 159.865 283.847 159.773 283.753C159.752 283.722 158.761 280.027 157.575 275.54C156.39 271.043 155.388 267.286 155.347 267.181C155.286 267.025 155.184 267.067 154.561 267.535C146.773 273.323 136.4 278.361 126.18 281.318C104.79 287.49 83.338 285.867 65.3407 276.717C64.3494 276.207 62.3258 275.114 61.7433 274.76C61.7331 274.76 61.7842 274.468 61.8659 274.135C62.0703 273.219 63.2967 266.911 63.6442 264.923C64.7173 258.979 65.5758 252.421 65.9437 247.383C66.9248 234.339 66.0356 222.608 63.1843 210.845C62.6426 208.607 61.7842 205.484 61.7126 205.484C61.682 205.484 61.4162 205.89 61.1096 206.4C60.803 206.9 59.7606 208.524 58.7999 210.012C53.7922 217.726 48.5698 224.627 42.7649 231.196C40.956 233.246 35.1204 239.18 33.3013 240.825C30.9302 242.959 26.9956 246.185 26.7503 246.185C26.6583 246.185 25.3297 243.625 24.7268 242.251C20.0052 231.654 17.3173 217.216 16.837 199.915C16.5304 188.725 17.6341 176.619 19.4431 171.247C19.5861 170.82 19.6986 170.456 19.6781 170.446C19.6577 170.425 15.2529 172.142 9.89766 174.256C4.53221 176.379 0.096764 178.107 0.0456644 178.107C-0.00543516 178.107 -0.0156551 177.503 0.0252246 176.671C0.638419 164.46 6.40245 146.441 14.3229 132.045C17.44 126.361 21.0067 121.052 24.1749 117.357C24.7779 116.639 24.8085 116.587 24.5939 116.535C24.461 116.504 21.6301 115.921 18.2984 115.244C14.9667 114.567 12.2176 113.984 12.1869 113.953C12.0949 113.859 14.7215 108.676 16.0705 106.292C19.1671 100.816 22.7645 95.445 26.4948 90.7191C33.1071 82.3498 41.2728 74.4698 49.4589 68.5676L50.1437 68.0783L49.4589 69.4524C48.4267 71.5239 47.7829 73.7724 47.3843 76.6142C47.2106 77.8945 47.2106 82.1729 47.3843 83.4324C48.0384 88.1375 49.5816 92.0515 52.0957 95.4034C53.2505 96.9544 55.223 98.8177 57.0012 100.036C57.8086 100.587 59.5562 101.597 59.6993 101.597C59.73 101.597 59.4234 100.879 59.0146 100.004C56.7866 95.268 55.5194 90.8544 55.0697 86.3054C54.9368 84.9418 54.9368 82.2561 55.0697 81.0382C55.5602 76.5933 57.2261 72.6169 59.6175 70.2019C61.6513 68.1616 64.3187 66.8084 67.2825 66.3504C68.6417 66.1318 70.9514 66.2046 72.4844 66.5169C75.3869 67.0999 78.7492 68.6509 81.2735 70.5766C81.6517 70.8681 81.9889 71.0867 82.0094 71.0659C82.0911 70.993 80.5888 68.0783 79.8938 66.9541C76.7563 61.8222 72.8319 58.741 68.3556 57.877C67.8241 57.7729 66.9963 57.648 66.516 57.6064L65.6473 57.5335L67.3336 56.7111ZM171.71 136.729C167.714 135.001 163.309 132.576 159.395 129.942C158.516 129.349 157.78 128.87 157.759 128.88C157.755 128.88 157.675 128.897 157.545 128.925C157.369 128.962 157.103 129.018 156.809 129.078C149.502 130.567 141.132 134.46 132.026 140.581C129.133 142.527 124.412 146.015 124.207 146.358C124.177 146.421 124.851 147.732 125.72 149.294C129.409 155.945 133.548 163.804 136.901 170.508L137.493 171.705L138.209 171.789C140.038 172.018 143.186 171.705 145.649 171.07C153.028 169.176 162.266 163.638 171.658 155.487L173.11 154.228V145.786V137.343L171.71 136.729ZM198.056 147.815C197.423 142.402 196.023 136.75 194.009 131.493C193.744 130.796 193.488 130.223 193.458 130.234C193.427 130.234 193.171 130.411 192.885 130.629C191.107 131.993 186.671 135.053 183.943 136.792L182.052 137.999L182.021 146.4L182.001 154.811L183.35 156.33C186.263 159.589 187.06 160.505 187.877 161.504C190.167 164.335 191.741 166.802 193.386 170.154L194.142 171.695L194.715 170.529C196.718 166.459 197.862 162.076 198.261 156.934C198.435 154.727 198.322 150.147 198.056 147.815ZM187.55 180.866C186.16 177.274 184.137 173.693 182.011 171.112L181.439 170.404L175.358 170.414H169.277L167.744 171.716C160.059 178.253 152.159 183.177 146.988 184.665C145.802 185.009 144.279 185.29 143.656 185.29C143.441 185.29 143.268 185.321 143.268 185.352C143.268 185.394 143.789 186.383 144.433 187.569C147.069 192.441 150.462 199.124 151.239 200.977L151.464 201.508L152.598 201.112C155.47 200.134 159.088 198.603 161.612 197.313C165.005 195.585 167.346 193.971 168.991 192.233C169.512 191.681 169.962 191.275 169.982 191.317C170.095 191.483 170.882 194.877 171.219 196.553C171.894 199.988 172.313 203.527 172.456 206.962C172.496 207.868 172.548 208.607 172.568 208.607C172.65 208.607 173.815 207.91 174.592 207.41C177.249 205.661 179.926 202.975 181.919 200.071C184.791 195.855 186.845 190.848 188.072 185.04C188.25 184.204 188.354 183.775 188.337 183.351C188.314 182.802 188.086 182.262 187.55 180.866Z" fill="#E3E7EC"/>
</svg>
