<svg width="32" height="40" viewBox="0 0 32 40" fill="none" xmlns="http://www.w3.org/2000/svg">
<path d="M27.6613 23.9512C28.2489 22.844 28.3088 21.6854 28.1655 20.5049C28.0735 19.7488 27.8797 19.015 27.5672 18.3316C27.0735 18.6724 26.6068 19.0032 26.1296 19.3178C26.0155 19.393 25.9794 19.4676 25.9805 19.5969C25.9866 20.2142 25.989 20.8318 25.9799 21.449C25.9775 21.6222 26.0286 21.7474 26.1486 21.8719C26.637 22.3788 27.1053 22.9034 27.4408 23.5302C27.5116 23.6628 27.5803 23.7967 27.6613 23.9512ZM20.6067 25.9764C20.6273 26.0296 20.6369 26.0635 20.653 26.0943C20.9938 26.7404 21.3328 27.3872 21.6824 28.0285C21.7091 28.0777 21.8233 28.1207 21.8799 28.1052C22.6899 27.8844 23.4389 27.534 24.1061 27.02C24.2053 26.9438 24.2927 26.8521 24.3854 26.7674C24.4119 26.7714 24.4384 26.7756 24.4648 26.7797C24.5557 27.5928 24.6469 28.4062 24.738 29.2207C24.7418 29.2189 24.776 29.2079 24.8038 29.1884C24.8923 29.1253 24.9823 29.0638 25.0649 28.9935C26.0048 28.1905 26.5373 27.1491 26.8132 25.9646C26.85 25.8064 26.834 25.6203 26.7899 25.4618C26.6469 24.9478 26.3943 24.4832 26.0623 24.067C26.0053 23.9956 25.8869 23.9371 25.796 23.9357C25.3315 23.928 24.8666 23.9368 24.4023 23.9507C24.3232 23.9531 24.2341 23.9916 24.1689 24.0397C23.8481 24.276 23.5437 24.5356 23.2152 24.7601C22.421 25.3038 21.6185 25.8368 20.6067 25.9764ZM24.6824 20.5101C24.6824 20.1906 24.6771 19.8709 24.6851 19.5516C24.6886 19.417 24.6501 19.353 24.5145 19.3009C23.8767 19.0554 23.2913 18.712 22.7332 18.3179C22.6402 18.2525 22.4924 18.2297 22.3755 18.2418C22.1988 18.2605 22.024 18.3182 21.8532 18.3746C20.3835 18.86 19.1125 19.6961 17.9016 20.634C17.8596 20.6666 17.8444 20.7942 17.8727 20.8483C18.4378 21.9308 19.0098 23.0098 19.5875 24.086C19.6209 24.1483 19.711 24.2084 19.7816 24.218C20.1999 24.275 20.6019 24.1726 20.9861 24.0277C22.356 23.5118 23.4902 22.6238 24.5955 21.6957C24.6498 21.6501 24.6765 21.5464 24.6789 21.4686C24.688 21.1494 24.6827 20.8297 24.6824 20.5101ZM26.9511 12.6887C25.5608 11.3553 24.0735 10.2406 22.3429 9.40984C22.2232 10.0164 22.1638 10.6028 21.83 11.1022C21.2472 10.7159 20.6773 10.3192 20.0882 9.95409C19.6091 9.65711 19.1079 9.39594 18.6137 9.12382C18.4359 9.02599 18.2574 8.98001 18.0379 9.01877C16.3258 9.3211 14.7267 9.88779 13.3418 10.9731C13.3076 10.9998 13.2768 11.0311 13.2426 11.0581C13.2143 11.0808 13.183 11.1003 13.1322 11.1356C13.4003 11.3679 13.6449 11.5799 13.9112 11.8108C12.8764 12.1677 12.06 12.798 11.3444 13.6438C11.7719 13.7106 12.1548 13.7737 12.5388 13.8282C12.6604 13.8456 12.7235 13.875 12.7369 14.022C12.8839 15.6366 14.4233 16.6128 15.5244 16.7964C16.2531 16.9178 16.9834 16.8817 17.7161 16.8542C18.8762 16.8106 20.0368 16.7897 21.1518 17.2049C21.1614 17.2083 21.1758 17.199 21.2159 17.188C20.8842 16.8282 20.5749 16.4642 20.2352 16.1311C19.7538 15.6588 19.2544 15.2043 18.7516 14.7544C18.6629 14.6748 18.5228 14.6213 18.4025 14.6128C17.8323 14.5727 17.2608 14.5347 16.6896 14.5302C16.0833 14.5254 15.5126 14.3987 14.9764 14.1236C14.6612 13.9621 14.3568 13.7801 14.0285 13.5967C14.7083 12.9707 15.4648 12.5424 16.3317 12.3016C16.6276 12.2193 16.8922 12.2717 17.1697 12.3751C17.9187 12.6547 18.6316 13.0017 19.2897 13.4671C19.7123 13.0904 20.1753 12.8124 20.7743 12.7713C20.6458 12.9763 20.5137 13.1541 20.417 13.3492C20.2774 13.6304 20.1823 13.9285 20.2702 14.2487C20.2897 14.3198 20.3301 14.3933 20.3809 14.4465C21.1026 15.2022 21.8305 15.952 22.5487 16.7112C22.6396 16.8071 22.6952 16.8253 22.8158 16.7681C23.2924 16.5422 23.8075 16.4487 24.3269 16.4171C25.0879 16.3711 25.8498 16.3783 26.587 16.6197C26.7437 16.6708 26.8947 16.7384 27.0778 16.7756C26.8741 16.5601 26.6846 16.3284 26.4638 16.1324C25.9374 15.6652 25.3935 15.218 24.8631 14.7555C24.7682 14.6729 24.6961 14.5606 24.626 14.454C24.3082 13.9704 23.9952 13.4836 23.6787 12.9955C24.201 13.1698 24.6664 13.4775 25.1 13.829C25.309 13.6649 25.4932 13.47 25.7177 13.3535C26.3098 13.0466 26.286 13.0017 26.6712 13.6221C26.7792 13.7959 26.8265 14.0092 26.8891 14.2083C26.9316 14.3439 26.8901 14.4639 26.7744 14.5561C26.6616 14.6459 26.5525 14.7408 26.4263 14.8467C26.8514 15.307 27.2756 15.7667 27.7423 16.2725C27.7931 15.9164 27.8364 15.612 27.8867 15.2586C29.4296 17.4692 30.5958 19.8027 31.1273 22.4229C31.7215 25.3519 31.4144 28.2124 30.4603 31.0513C29.9987 30.5407 29.5574 30.0529 29.0709 29.515C28.6049 33.9077 26.5237 37.2617 22.8829 39.6969C22.7824 39.3122 22.6853 38.9468 22.5915 38.5806C22.4974 38.2125 22.4063 37.8436 22.3114 37.4643C21.9249 37.7049 21.5642 37.9457 21.1887 38.1604C19.7265 38.9968 18.1641 39.5501 16.5003 39.8257C15.4126 40.0059 14.3209 40.0505 13.2277 39.9401C11.7753 39.7934 10.4004 39.3742 9.11148 38.6803C8.99261 38.6164 8.96366 38.5413 8.98461 38.4221C9.12086 37.6471 9.26879 36.8741 9.38814 36.0965C9.58128 34.8385 9.64693 33.5736 9.56181 32.3009C9.48769 31.1927 9.2829 30.1109 8.94631 28.9903C7.54657 31.0906 6.03116 33.0368 4.04718 34.5963C3.71558 34.0529 3.49497 33.4838 3.31561 32.8984C3.01606 31.9211 2.84439 30.9189 2.73875 29.9026C2.6252 28.8107 2.58192 27.7166 2.63068 26.6206C2.66955 25.7465 2.72966 24.8727 2.96479 23.9777C1.98251 24.2806 1.02484 24.5757 0 24.8914C0.377682 21.6753 1.56446 18.8533 3.50959 16.3003C2.92467 16.2035 2.33546 16.1062 1.72337 16.0052C2.98909 13.4641 4.73529 11.3759 7.01633 9.69346C6.04984 11.9464 7.25357 13.9164 8.33305 14.3358C8.20495 14.022 8.06274 13.7162 7.95411 13.3989C7.7108 12.6884 7.6209 11.9546 7.77958 11.2166C8.07586 9.83861 9.20076 9.21471 10.5647 9.66887C10.9173 9.78622 11.2457 9.97627 11.5742 10.1278C11.56 9.45983 10.5469 8.58653 9.36264 8.22111C10.0004 7.95461 10.6298 7.66565 11.2777 7.42667C12.4798 6.98347 13.7208 6.69584 14.9948 6.53733C16.1884 6.38897 17.3822 6.37855 18.5776 6.46917C18.7524 6.48253 18.9299 6.59507 19.0871 6.69237C19.8155 7.14279 20.4268 7.7298 20.9957 8.36412C21.0759 8.45367 21.1542 8.54456 21.2646 8.67046C21.2461 7.99604 21.101 7.40796 20.8163 6.7731C21.4659 6.98561 22.0647 7.1631 22.6501 7.37722C23.7118 7.76535 24.692 8.30452 25.5581 9.03802C25.7541 9.20375 25.9479 9.35825 25.9751 9.65844C26.0545 10.5323 26.3777 11.3382 26.7201 12.1359C26.7934 12.3069 26.8637 12.4794 26.9511 12.6887Z" fill="#FEFEFE"/>
<path d="M21.8671 5.98272C17.1662 4.76886 12.6842 5.28878 8.40999 7.62988C7.88751 6.12413 7.28836 4.66488 6.27148 3.35212C7.40587 3.86936 8.38257 4.52908 9.33857 5.30856C9.12465 3.95357 8.91906 2.6515 8.70566 1.29998C10.1261 2.28395 11.5061 3.23958 12.9129 4.21393C13.3915 2.80975 13.8622 1.42829 14.3479 0.00379229C15.1386 1.27646 15.9077 2.5141 16.6986 3.7873C17.8446 2.52346 18.9718 1.2802 20.1325 4.86374e-05C20.2261 1.35745 20.3167 2.67315 20.4118 4.05408C21.1763 3.06824 21.9855 2.20295 22.9783 1.44219C22.2974 2.90865 22.0438 4.42029 21.8671 5.98272Z" fill="#FEFEFE"/>
</svg>
