<svg width="42" height="40" viewBox="0 0 42 40" fill="none" xmlns="http://www.w3.org/2000/svg">
<path fill-rule="evenodd" clip-rule="evenodd" d="M24.1279 3.24249e-05C23.7002 0.027751 22.0628 0.779349 21.8537 1.57775C22.8519 2.33578 24.2778 2.72604 25.5691 3.48006H22.4007C19.0239 3.51882 17.9896 5.2492 17.0232 8.94153C16.7899 8.6065 14.6671 5.32612 13.7133 5.32612C13.1977 5.32612 10.8538 6.32699 9.29297 6.68311C10.3407 5.55691 11.7777 4.358 12.7848 3.21212C12.3896 2.67061 12.1719 2.04414 11.9796 1.35058C12.6817 1.30941 13.335 1.56129 16.1712 1.10976C18.955 0.657836 21.5419 0.104277 24.1279 3.24249e-05Z" fill="white"/>
<path fill-rule="evenodd" clip-rule="evenodd" d="M33.2675 3.52624C34.368 4.74242 35.3088 6.47238 36.4658 7.84985C37.8192 9.46052 39.3853 10.7331 40.6098 12.3137C39.8743 12.1502 39.0615 11.9527 38.0803 11.7497C37.9175 11.9254 37.9472 11.9547 37.9472 12.4569C37.9472 12.9586 38.1535 14.2551 38.2896 16.5686C37.1384 14.9198 35.9067 13.1211 34.5041 11.3439C32.6995 11.5518 30.8547 11.7511 28.893 12.1144C29.7115 10.599 31.7601 8.5402 31.7601 8.03806C31.7601 6.93335 27.6619 4.56426 27.0312 3.76907C28.9986 4.12338 30.8739 4.53132 32.6665 5.32852C33.0499 4.88241 33.2304 3.92875 33.2675 3.52624Z" fill="white"/>
<path fill-rule="evenodd" clip-rule="evenodd" d="M7.17855 4.54458C6.79371 5.47173 6.38124 6.47601 5.97206 7.19587C6.52787 7.33969 7.32024 7.33507 8.24563 7.41079C5.25435 9.03049 3.63166 12.2364 4.06951 14.7547C3.32932 14.1348 2.90385 13.5168 2.56706 12.9586C2.03146 13.5323 1.42801 14.3164 0.685547 15.3627C1.18629 11.6876 3.05213 7.78498 7.17855 4.54458Z" fill="white"/>
<path fill-rule="evenodd" clip-rule="evenodd" d="M17.1924 9.34725C18.5412 10.9904 19.7737 12.7919 21.1691 14.3694L28.0288 12.5981C27.0018 14.3176 24.1297 17.7796 24.1297 18.2817C24.1297 18.7839 27.1936 21.8258 28.8635 23.5459C26.2871 23.4031 23.7954 22.7978 21.3826 22.1914C20.1942 23.9613 18.9564 25.7686 17.6136 27.6195C17.1201 25.5322 16.9122 23.3154 16.6434 21.1455C15.1266 20.1471 12.6965 19.5292 10.7246 18.6893C12.634 17.591 14.6943 16.7886 16.4389 15.815C16.7059 13.8492 16.9122 11.6436 17.1924 9.34725Z" fill="white"/>
<path fill-rule="evenodd" clip-rule="evenodd" d="M4.04186 15.5717C4.84619 20.5515 3.89275 18.9846 7.14142 19.0188H9.48222C8.21283 20.1663 5.56844 22.8009 5.56844 23.303C5.56844 23.8048 6.80195 25.8858 7.17812 27.3999C6.03123 26.8035 4.53725 25.8137 4.02165 25.8137C3.24826 25.8137 2.6514 28.1947 2.14426 28.6233C1.14112 26.1504 2.63635 23.7772 0 21.2953C2.14426 19.1644 2.67017 17.7034 4.04186 15.5717Z" fill="white"/>
<path fill-rule="evenodd" clip-rule="evenodd" d="M38.684 17.9812C38.9787 19.4723 38.9787 21.0812 39.1753 22.6561L39.5145 23.0034C40.0567 22.6169 40.8776 22.0176 41.8186 21.4098C41.4383 23.5718 40.2396 24.7115 39.3574 26.5901C38.7943 27.7902 38.5607 29.7104 38.0983 31.0254C37.4006 30.8293 36.9631 30.2157 36.3952 29.8305C34.7985 30.6237 32.9423 31.2262 31.1683 32.0057C31.9852 30.6791 32.6039 29.2727 33.4119 28.1294C32.1986 26.7827 30.5431 25.5705 29.5039 24.0607C30.4206 24.0057 31.8643 24.2065 32.3799 24.2065C37.1234 24.2065 36.1784 23.5146 38.684 17.9812Z" fill="white"/>
<path fill-rule="evenodd" clip-rule="evenodd" d="M17.2617 28.2318C17.3237 29.3286 16.9113 33.0445 16.9113 33.5466C16.9113 35.0777 19.9494 35.9334 20.6227 36.1684C19.4888 36.2582 18.2514 36.459 17.0874 36.4297C17.1175 36.5594 16.9113 36.459 16.9113 36.9612C16.9113 37.4633 17.114 38.5433 17.2823 39.4512C15.8285 38.7046 13.7991 37.0262 11.8141 36.0973C10.422 35.4696 7.45689 34.9502 6.19141 33.7181C7.51009 33.4474 8.73226 33.2499 9.90803 32.9029C9.28849 31.5768 8.4592 30.1592 8.08612 28.6433C9.64982 29.6484 11.0931 30.6523 12.4868 31.6389C13.6977 31.0948 15.5526 29.6813 17.2617 28.2318Z" fill="white"/>
<path fill-rule="evenodd" clip-rule="evenodd" d="M30.6924 32.6487V35.7182C30.9067 35.8857 30.8333 35.8566 31.3489 35.8566C31.8645 35.8566 33.6884 35.0577 35.0492 34.7036C30.8463 38.0688 26.0188 39.7979 21.4531 40C21.9192 39.6835 22.943 39.0839 23.9268 38.548C23.3266 37.8247 22.3051 37.2332 21.6637 36.4937H27.0824C28.286 35.2831 29.5168 33.8841 30.6924 32.6487Z" fill="white"/>
</svg>
